<?xml version="1.0" encoding="UTF-8"?>
<svg version="1.1" xmlns="http://www.w3.org/2000/svg" width="410" height="125">

<path d="M0 0 C1.51829432 0.00270099 3.03659891 0.01782963 4.5546875 0.04296875 C5.74747314 0.05263672 5.74747314 0.05263672 6.96435547 0.0625 C14.80457456 0.16188087 22.61347169 0.63413621 30.4296875 1.23046875 C30.53191501 9.66991755 30.50771373 18.10840016 30.1796875 26.54296875 C30.16558838 27.26540771 30.15148926 27.98784668 30.13696289 28.73217773 C29.98099335 31.99664736 29.85635709 33.78789843 27.54296875 36.1875 C24.91459756 37.48468135 23.3251218 37.67592018 20.4296875 37.23046875 C18.78198242 36.02612305 18.78198242 36.02612305 17.4296875 34.23046875 C17.1809082 31.87036133 17.1809082 31.87036133 17.35546875 29.125 C17.41025391 28.14208984 17.46503906 27.15917969 17.52148438 26.14648438 C17.59431641 25.12232422 17.66714844 24.09816406 17.7421875 23.04296875 C17.8340332 21.48932617 17.8340332 21.48932617 17.92773438 19.90429688 C18.08104737 17.34514918 18.2488982 14.7877983 18.4296875 12.23046875 C17.49902466 12.25403442 17.49902466 12.25403442 16.54956055 12.27807617 C13.73886222 12.34043089 10.92830938 12.37946023 8.1171875 12.41796875 C6.65249023 12.45567383 6.65249023 12.45567383 5.15820312 12.49414062 C3.75151367 12.50864258 3.75151367 12.50864258 2.31640625 12.5234375 C1.45233154 12.53914795 0.58825684 12.5548584 -0.30200195 12.57104492 C-2.5703125 12.23046875 -2.5703125 12.23046875 -4.35620117 10.93481445 C-6.3517108 8.13355712 -5.87157762 5.54438503 -5.5703125 2.23046875 C-3.5703125 0.23046875 -3.5703125 0.23046875 0 0 Z " fill="#1FCC99" transform="translate(335.5703125,41.76953125)"/>
<path d="M0 0 C1.299375 0.01417969 2.59875 0.02835937 3.9375 0.04296875 C4.63359375 0.04941406 5.3296875 0.05585937 6.046875 0.0625 C14.35637664 0.18036527 22.64578119 0.70675238 30.9375 1.23046875 C30.86865528 5.87577554 30.78070696 10.52017934 30.67504883 15.16479492 C30.64179812 16.74477118 30.61376654 18.32486627 30.59106445 19.9050293 C30.55751984 22.17678454 30.50520773 24.44745078 30.44921875 26.71875 C30.43963387 27.77827629 30.43963387 27.77827629 30.42985535 28.85920715 C30.3433515 31.74552197 30.25982399 33.76392717 28.59301758 36.17651367 C25.97948822 37.84036948 23.95001453 37.60703307 20.9375 37.23046875 C19.25463867 36.02612305 19.25463867 36.02612305 17.9375 34.23046875 C17.6887207 31.87036133 17.6887207 31.87036133 17.86328125 29.125 C17.91806641 28.14208984 17.97285156 27.15917969 18.02929688 26.14648438 C18.10212891 25.12232422 18.17496094 24.09816406 18.25 23.04296875 C18.3418457 21.48932617 18.3418457 21.48932617 18.43554688 19.90429688 C18.58885987 17.34514918 18.7567107 14.7877983 18.9375 12.23046875 C18.00683716 12.25403442 18.00683716 12.25403442 17.05737305 12.27807617 C14.24667472 12.34043089 11.43612188 12.37946023 8.625 12.41796875 C7.16030273 12.45567383 7.16030273 12.45567383 5.66601562 12.49414062 C4.25932617 12.50864258 4.25932617 12.50864258 2.82421875 12.5234375 C1.96014404 12.53914795 1.09606934 12.5548584 0.20581055 12.57104492 C-2.0625 12.23046875 -2.0625 12.23046875 -3.84838867 10.93481445 C-5.8438983 8.13355712 -5.36376512 5.54438503 -5.0625 2.23046875 C-3.0625 0.23046875 -3.0625 0.23046875 0 0 Z " fill="#1ECC99" transform="translate(375.0625,7.76953125)"/>
<path d="M0 0 C3.95831733 -0.02940464 7.91660597 -0.04693328 11.875 -0.0625 C12.98359375 -0.07087891 14.0921875 -0.07925781 15.234375 -0.08789062 C21.89051489 -0.10746751 28.3939117 0.17120222 35 1 C34.85960448 4.97937771 34.71168681 8.95844294 34.5625 12.9375 C34.52318359 14.05447266 34.48386719 15.17144531 34.44335938 16.32226562 C33.96493504 28.87170395 33.96493504 28.87170395 33 35 C29.98675805 36.50662097 27.31713623 36.17770373 24 36 C22 34 22 34 21.76953125 31.0234375 C21.78371094 29.81945312 21.79789062 28.61546875 21.8125 27.375 C21.81894531 26.18648437 21.82539063 24.99796875 21.83203125 23.7734375 C22.00934095 19.79015448 22.45532195 15.94782648 23 12 C22.12263184 12.02356567 22.12263184 12.02356567 21.22753906 12.04760742 C18.56845836 12.11010267 15.90953236 12.14903569 13.25 12.1875 C11.86941406 12.22520508 11.86941406 12.22520508 10.4609375 12.26367188 C9.57148438 12.27333984 8.68203125 12.28300781 7.765625 12.29296875 C6.94868164 12.3086792 6.13173828 12.32438965 5.29003906 12.34057617 C2.40873123 11.91206611 1.06091184 11.04016244 -1 9 C-1.52238806 3.04477612 -1.52238806 3.04477612 0 0 Z " fill="#1ECC98" transform="translate(350,25)"/>
<path d="M0 0 C0.71220703 -0.03287109 1.42441406 -0.06574219 2.15820312 -0.09960938 C6.15424153 -0.14027212 7.93836912 0.23556576 11.07421875 2.77734375 C14.31116466 6.85194665 15.5873525 9.08201596 15.44140625 14.375 C14.94622798 18.39737117 13.35358727 21.3605242 10.3984375 24.08984375 C7.73227449 25.71497845 6.15885612 25.77992854 3.0625 25.6875 C2.19367188 25.67203125 1.32484375 25.6565625 0.4296875 25.640625 C-1.8125 25.4375 -1.8125 25.4375 -3.8125 24.4375 C-3.8125 27.0775 -3.8125 29.7175 -3.8125 32.4375 C-5.46864657 32.81968767 -7.13707024 33.15145102 -8.8125 33.4375 C-11.24266037 31.00733963 -9.98572555 25.17974869 -9.99804688 21.78320312 C-9.99796631 21.08074463 -9.99788574 20.37828613 -9.99780273 19.65454102 C-9.99998743 17.51233 -10.01813512 15.37063529 -10.03710938 13.22851562 C-10.04004359 11.8723976 -10.0420282 10.51627712 -10.04296875 9.16015625 C-10.04707764 7.92015869 -10.05118652 6.68016113 -10.05541992 5.40258789 C-9.54619303 -0.81305091 -5.07729647 0.04069071 0 0 Z " fill="#464551" transform="translate(101.8125,74.5625)"/>
<path d="M0 0 C1.2065625 0.2475 1.2065625 0.2475 2.4375 0.5 C4.97658116 1.26597109 4.97658116 1.26597109 7 0 C12.3401391 -0.35017306 15.66462219 -0.46830225 20 3 C23.42766802 6.82604105 23.44991568 9.62192446 23.2890625 14.59375 C22.79741959 18.68634501 21.04259592 20.83710455 18.375 23.8125 C14.70911161 25.64544419 11.02639243 25.38558454 7 25 C6.01 24.67 5.02 24.34 4 24 C4 26.97 4 29.94 4 33 C2.35 32.67 0.7 32.34 -1 32 C-1.02465504 27.60343827 -1.04283842 23.2069128 -1.05493164 18.81030273 C-1.05997121 17.31355082 -1.06680287 15.81680384 -1.07543945 14.32006836 C-1.08752159 12.17300193 -1.09323191 10.02600038 -1.09765625 7.87890625 C-1.10289307 6.5854126 -1.10812988 5.29191895 -1.11352539 3.95922852 C-1 1 -1 1 0 0 Z " fill="#3C3B48" transform="translate(65,75)"/>
<path d="M0 0 C1.33981486 -0.3062434 2.67511887 -0.63451555 4 -1 C5 0 5 0 5.11352539 2.22485352 C5.10828857 3.18319092 5.10305176 4.14152832 5.09765625 5.12890625 C5.09443359 6.16337891 5.09121094 7.19785156 5.08789062 8.26367188 C5.07951172 9.35228516 5.07113281 10.44089844 5.0625 11.5625 C5.05798828 12.65498047 5.05347656 13.74746094 5.04882812 14.87304688 C5.03699826 17.58208495 5.02051543 20.29101599 5 23 C1.25 24.125 1.25 24.125 -1 23 C-1.66 23.33 -2.32 23.66 -3 24 C-8.17057507 24.64060222 -11.80936543 24.89905059 -16.0625 21.6875 C-19.55414492 16.84425059 -19.82857377 11.80001636 -19 6 C-14.72511425 -1.97553311 -7.92024491 -1.98006123 0 0 Z " fill="#3E3D4A" transform="translate(185,76)"/>
<path d="M0 0 C3.22386941 0.15111888 4.15929021 1.1641404 6.4375 3.51171875 C7.30137086 4.56240831 8.15527609 5.62135604 9 6.6875 C9.42539062 7.20505859 9.85078125 7.72261719 10.2890625 8.25585938 C13.11221728 11.73284295 15.48892984 15.23339476 18 19 C18.33 13.06 18.66 7.12 19 1 C20.65 0.67 22.3 0.34 24 0 C25 1 25 1 25.11352539 3.77563477 C25.10828857 4.98533936 25.10305176 6.19504395 25.09765625 7.44140625 C25.09443359 8.74658203 25.09121094 10.05175781 25.08789062 11.39648438 C25.07953401 12.7851569 25.07106905 14.17382877 25.0625 15.5625 C25.05748666 16.95507656 25.05292347 18.34765481 25.04882812 19.74023438 C25.03699434 23.1601987 25.0205088 26.58007844 25 30 C23.35 30.33 21.7 30.66 20 31 C18.43426836 29.14848433 16.87241373 27.29390797 15.3125 25.4375 C14.87744141 24.92380859 14.44238281 24.41011719 13.99414062 23.88085938 C10.76383329 20.02841878 7.94247997 16.11947196 5 12 C4.67 17.94 4.34 23.88 4 30 C2.68 30.33 1.36 30.66 0 31 C-1.85714057 29.14285943 -1.13048681 26.07492951 -1.1328125 23.59375 C-1.13410156 22.29308594 -1.13539063 20.99242187 -1.13671875 19.65234375 C-1.13462402 18.97155762 -1.1325293 18.29077148 -1.13037109 17.58935547 C-1.1250224 15.50871485 -1.1303168 13.42829011 -1.13671875 11.34765625 C-1.13542969 10.04699219 -1.13414062 8.74632813 -1.1328125 7.40625 C-1.13168457 6.20291016 -1.13055664 4.99957031 -1.12939453 3.75976562 C-1 1 -1 1 0 0 Z " fill="#3E3D49" transform="translate(312,69)"/>
<path d="M0 0 C1.03769531 -0.01417969 2.07539063 -0.02835937 3.14453125 -0.04296875 C7.02536778 0.25095854 9.89815029 1.20937263 13 3.5625 C14.1875 5.1875 14.1875 5.1875 14.1875 9.1875 C11.875 9.375 11.875 9.375 9.1875 9.1875 C8.74148437 8.69378906 8.29546875 8.20007813 7.8359375 7.69140625 C5.57445688 5.62820711 4.13613171 5.84880687 1.125 5.9375 C0.24714844 5.95296875 -0.63070312 5.9684375 -1.53515625 5.984375 C-3.84287027 6.05019209 -3.84287027 6.05019209 -5.8125 7.1875 C-5.8125 8.5075 -5.8125 9.8275 -5.8125 11.1875 C-2.02253762 13.08248119 2.53367521 13.0084476 6.70703125 13.4921875 C10.24178142 14.1983441 12.40076536 14.91123264 15.1875 17.1875 C16.14569611 20.24809111 15.90170025 23.0776359 15.1875 26.1875 C11.9427576 29.69532962 9.02415691 31.03791913 4.26171875 31.42578125 C-6.92156298 31.67085893 -6.92156298 31.67085893 -11.8125 27.1875 C-12.8125 26.1875 -12.8125 26.1875 -12.875 23.625 C-12.854375 22.820625 -12.83375 22.01625 -12.8125 21.1875 C-10.5 20.9375 -10.5 20.9375 -7.8125 21.1875 C-7.37550781 21.84492187 -6.93851562 22.50234375 -6.48828125 23.1796875 C-4.96031146 25.44831883 -4.96031146 25.44831883 -2.21875 25.6484375 C-1.2596875 25.62007812 -0.300625 25.59171875 0.6875 25.5625 C1.6465625 25.54960938 2.605625 25.53671875 3.59375 25.5234375 C6.42075478 25.35210918 6.42075478 25.35210918 9.1875 23.1875 C9.1875 22.1975 9.1875 21.2075 9.1875 20.1875 C7.43373047 19.94966797 7.43373047 19.94966797 5.64453125 19.70703125 C4.09619015 19.47243411 2.54802153 19.23669667 1 19 C0.23107422 18.89880859 -0.53785156 18.79761719 -1.33007812 18.69335938 C-6.61051125 17.85483566 -9.41274309 16.58914992 -12.8125 12.1875 C-13.4375 9.1875 -13.4375 9.1875 -12.8125 6.1875 C-8.64812466 1.25600288 -6.31375658 0.03892575 0 0 Z " fill="#3E3D4A" transform="translate(131.8125,68.8125)"/>
<path d="M0 0 C2.4375 1.8125 2.4375 1.8125 3.3125 4.5 C3.35375 5.263125 3.395 6.02625 3.4375 6.8125 C2.4475 7.1425 1.4575 7.4725 0.4375 7.8125 C-0.89583333 6.8125 -2.22916667 5.8125 -3.5625 4.8125 C-6.9682647 4.15754525 -10.14726521 4.22249266 -13.5625 4.8125 C-16.34448623 6.93210856 -17.3030366 8.29845474 -17.89453125 11.75 C-18.12481941 16.25341293 -17.34172817 19.14391881 -14.5625 22.8125 C-12.98289731 24.39210269 -11.36713184 23.98236544 -9.1875 24 C-8.00027344 24.02126953 -8.00027344 24.02126953 -6.7890625 24.04296875 C-4.27518667 23.95757509 -4.27518667 23.95757509 -1.5625 21.8125 C-0.83284634 19.24967258 -0.83284634 19.24967258 -0.5625 16.8125 C-3.5325 16.8125 -6.5025 16.8125 -9.5625 16.8125 C-9.8925 15.4925 -10.2225 14.1725 -10.5625 12.8125 C-9.5625 11.8125 -9.5625 11.8125 -6.65625 11.6796875 C-5.4703125 11.68226562 -4.284375 11.68484375 -3.0625 11.6875 C-1.8765625 11.68492188 -0.690625 11.68234375 0.53125 11.6796875 C3.4375 11.8125 3.4375 11.8125 4.4375 12.8125 C5.65886332 22.02683591 5.65886332 22.02683591 3.203125 25.6171875 C-1.74212226 29.75454783 -6.56077998 30.27584148 -12.76171875 30.2265625 C-17.28740944 29.55749247 -19.76697822 27.31108713 -22.5625 23.8125 C-25.20856225 19.55579116 -25.11379482 14.68801354 -24.5625 9.8125 C-22.87085942 5.09371312 -20.70201382 2.60667183 -16.5625 -0.1875 C-11.04001342 -2.02832886 -5.49666245 -1.83222082 0 0 Z " fill="#42414D" transform="translate(269.5625,70.1875)"/>
<path d="M0 0 C4.58312995 0.49267094 4.58312995 0.49267094 6.42211914 2.73071289 C6.78942139 3.4705542 7.15672363 4.21039551 7.53515625 4.97265625 C7.95216797 5.79056641 8.36917969 6.60847656 8.79882812 7.45117188 C9.21583984 8.31291016 9.63285156 9.17464844 10.0625 10.0625 C10.48337891 10.89716797 10.90425781 11.73183594 11.33789062 12.59179688 C12.17221444 14.25138983 12.99611969 15.91626494 13.80908203 17.58642578 C14.59095726 19.17101342 15.39864256 20.74317575 16.23388672 22.30029297 C17.22730785 24.163864 18.12263679 26.07905848 19 28 C18.505 29.485 18.505 29.485 18 31 C15.6875 30.875 15.6875 30.875 13 30 C12.6184375 29.01 12.236875 28.02 11.84375 27 C11.2353125 26.01 10.626875 25.02 10 24 C7.01526372 23.36678097 4.797088 23.11457349 1.8125 23.125 C1.06291016 23.104375 0.31332031 23.08375 -0.45898438 23.0625 C-2.30550787 23.01545482 -4.15288219 23.00425113 -6 23 C-6.309375 23.94875 -6.61875 24.8975 -6.9375 25.875 C-8 29 -8 29 -9 31 C-10.65 30.67 -12.3 30.34 -14 30 C-13.41043107 26.42301801 -12.45492873 23.54301962 -10.8203125 20.3125 C-10.38589844 19.44882813 -9.95148437 18.58515625 -9.50390625 17.6953125 C-9.04886719 16.80585937 -8.59382813 15.91640625 -8.125 15 C-7.67769531 14.11054687 -7.23039062 13.22109375 -6.76953125 12.3046875 C-4.64836234 8.11240676 -2.50437908 3.98047007 0 0 Z " fill="#3D3C48" transform="translate(43,69)"/>
<path d="M0 0 C1.65 0.33 3.3 0.66 5 1 C5.33 5.29 5.66 9.58 6 14 C7.0725 12.865625 8.145 11.73125 9.25 10.5625 C11.74482259 7.92374534 13.37386801 6.56959153 17 6 C17.66 7.32 18.32 8.64 19 10 C16.36 12.31 13.72 14.62 11 17 C12.3921875 18.6396875 12.3921875 18.6396875 13.8125 20.3125 C14.33457031 20.92738281 14.85664063 21.54226562 15.39453125 22.17578125 C15.92433594 22.77777344 16.45414063 23.37976563 17 24 C17.5053125 24.5775 18.010625 25.155 18.53125 25.75 C19.0159375 26.1625 19.500625 26.575 20 27 C22.65466049 26.76956136 22.65466049 26.76956136 25 26 C25.5625 27.9375 25.5625 27.9375 26 30 C23.90811115 32.09188885 20.50148153 31.6249082 17.71484375 31.62890625 C13.26629889 30.59838003 11.27818922 27.58148138 8.59375 24.06640625 C7.16141493 21.89940603 7.16141493 21.89940603 5 21 C5 23.97 5 26.94 5 30 C3.34385343 30.38218767 1.67542976 30.71395102 0 31 C-1.85714057 29.14285943 -1.13048681 26.07492951 -1.1328125 23.59375 C-1.13410156 22.29308594 -1.13539063 20.99242187 -1.13671875 19.65234375 C-1.13462402 18.97155762 -1.1325293 18.29077148 -1.13037109 17.58935547 C-1.1250224 15.50871485 -1.1303168 13.42829011 -1.13671875 11.34765625 C-1.13542969 10.04699219 -1.13414062 8.74632813 -1.1328125 7.40625 C-1.13168457 6.20291016 -1.13055664 4.99957031 -1.12939453 3.75976562 C-1 1 -1 1 0 0 Z " fill="#444450" transform="translate(220,69)"/>
<path d="M0 0 C2.33276367 0.22045898 2.33276367 0.22045898 5 1 C6.4855957 2.94946289 6.4855957 2.94946289 7.67578125 5.47265625 C8.11083984 6.37177734 8.54589844 7.27089844 8.99414062 8.19726562 C9.42919922 9.14279297 9.86425781 10.08832031 10.3125 11.0625 C10.76689453 12.01189453 11.22128906 12.96128906 11.68945312 13.93945312 C12.80953152 16.28572261 13.91200754 18.63872379 15 21 C15.31227539 20.39937744 15.62455078 19.79875488 15.94628906 19.17993164 C17.36697777 16.46658446 18.80812331 13.76464295 20.25 11.0625 C20.74113281 10.11697266 21.23226563 9.17144531 21.73828125 8.19726562 C22.22167969 7.29814453 22.70507812 6.39902344 23.203125 5.47265625 C23.86296387 4.22367554 23.86296387 4.22367554 24.53613281 2.94946289 C26 1 26 1 28.17480469 0.22045898 C29.07827637 0.11133179 29.07827637 0.11133179 30 0 C31.14650888 2.80609632 31.02837342 3.92113647 29.98364258 6.82495117 C26.76709748 13.33859089 26.76709748 13.33859089 25.7409668 15.35522461 C24.81486166 17.1828394 23.9173323 19.02263528 23.02148438 20.86523438 C22.44333984 22.01701172 21.86519531 23.16878906 21.26953125 24.35546875 C20.73948486 25.41403076 20.20943848 26.47259277 19.66333008 27.56323242 C18 30 18 30 15.7956543 30.8527832 C15.20308838 30.90136475 14.61052246 30.94994629 14 31 C10.28152366 25.21659535 6.86962206 19.31106819 3.625 13.25 C3.16222656 12.41339844 2.69945312 11.57679687 2.22265625 10.71484375 C1.79082031 9.90660156 1.35898437 9.09835938 0.9140625 8.265625 C0.5217041 7.54149414 0.1293457 6.81736328 -0.27490234 6.07128906 C-1.13226081 3.62218831 -0.86076379 2.40796805 0 0 Z " fill="#3F3E4A" transform="translate(277,69)"/>
<path d="M0 0 C3 1.25 3 1.25 5 3 C5.8125 5.1875 5.8125 5.1875 6 7 C5.01 7.33 4.02 7.66 3 8 C2.01 7.34 1.02 6.68 0 6 C-4.79880207 5.43645987 -4.79880207 5.43645987 -9 7.4375 C-10.53031768 11.35893905 -9.72205972 14.9286271 -9 19 C-7.1128125 19.309375 -7.1128125 19.309375 -5.1875 19.625 C-4.47980469 19.74101563 -3.77210938 19.85703125 -3.04296875 19.9765625 C-0.68244176 20.19577848 -0.68244176 20.19577848 2 18 C4.6875 17.875 4.6875 17.875 7 18 C6.63868282 20.61954957 6.24399043 21.77105008 4.2890625 23.60546875 C0.15103319 26.12641835 -4.32512226 25.7363608 -9 25 C-12.67003939 23.14364286 -14.68093126 20.95720623 -16 17 C-16.494097 12.89899494 -16.95235971 8.7767905 -14.953125 5.046875 C-10.49535884 -0.3548887 -6.63983849 -0.64219509 0 0 Z " fill="#41404C" transform="translate(210,75)"/>
<path d="M0 0 C1.65 0 3.3 0 5 0 C5 1.98 5 3.96 5 6 C6.65 6 8.3 6 10 6 C10.33 7.65 10.66 9.3 11 11 C9.02 11 7.04 11 5 11 C5.33 15.62 5.66 20.24 6 25 C8.31 25.66 10.62 26.32 13 27 C12.67 28.32 12.34 29.64 12 31 C10.56416999 31.10836453 9.1259798 31.18576167 7.6875 31.25 C6.88699219 31.29640625 6.08648437 31.3428125 5.26171875 31.390625 C3 31 3 31 1.21875 29.5 C-0.51009609 25.95364904 -0.32015147 22.60029395 -0.1875 18.75 C-0.16719727 17.63238281 -0.16719727 17.63238281 -0.14648438 16.4921875 C-0.11127204 14.66114584 -0.05746851 12.83047831 0 11 C-1.32 11 -2.64 11 -4 11 C-4 9.35 -4 7.7 -4 6 C-2.68 6 -1.36 6 0 6 C0 4.02 0 2.04 0 0 Z " fill="#3F3E4A" transform="translate(152,69)"/>
<path d="M0 0 C2.4375 1.5625 2.4375 1.5625 4 4 C4.45310904 7.62487235 4.38885542 10.05216491 3 13.4375 C0.30070449 15.54632462 -1.71539248 15.43993297 -5.0625 15.43359375 C-7.5915973 14.86760625 -8.48268122 14.08980409 -10 12 C-10.3984375 9.84375 -10.3984375 9.84375 -10.375 7.5 C-10.38273437 6.7265625 -10.39046875 5.953125 -10.3984375 5.15625 C-9.33527516 -0.59733443 -5.09623629 -0.62585358 0 0 Z " fill="#F3F3F4" transform="translate(79,80)"/>
<path d="M0 0 C2.375 0.9375 2.375 0.9375 4 3 C4.50786669 6.06431924 4.61329775 8.95008689 4 12 C2.47985637 14.08729202 1.59145183 14.8676388 -0.9375 15.43359375 C-6.38961039 15.44391972 -6.38961039 15.44391972 -9.0625 13.5 C-10.44268489 9.81950696 -10.02735608 6.75104428 -9 3 C-6.79461481 -0.71433296 -4.06307329 -0.49751918 0 0 Z " fill="#F5F5F6" transform="translate(181,80)"/>
<path d="M0 0 C1.9375 1.5625 1.9375 1.5625 3 4 C3.3879235 7.62061933 3.39859421 10.08557799 1.9375 13.4375 C0 15 0 15 -3.5 15.4375 C-7 15 -7 15 -8.6953125 13.75390625 C-10.34529514 11.53581581 -10.40242938 10.24293779 -10.375 7.5 C-10.38273437 6.7265625 -10.39046875 5.953125 -10.3984375 5.15625 C-9.33682057 -0.58897105 -5.09746756 -0.63718345 0 0 Z " fill="#FCFCFC" transform="translate(108,80)"/>
<path d="M0 0 C6 7.71428571 6 7.71428571 6 11 C2.37 11 -1.26 11 -5 11 C-3.77472971 6.94718288 -2.30119506 3.55639236 0 0 Z " fill="#E2E2E4" transform="translate(45,77)"/>
</svg>
