<?xml version="1.0" encoding="UTF-8"?>
<svg version="1.1" xmlns="http://www.w3.org/2000/svg" width="388" height="116">
<path d="M0 0 C3.04173098 -0.02754082 6.08320113 -0.04709291 9.125 -0.0625 C9.96160156 -0.07087891 10.79820312 -0.07925781 11.66015625 -0.08789062 C19.13886001 -0.11600605 26.54790197 0.39788569 34 1 C33.93091287 5.18148877 33.84284758 9.36202754 33.73754883 13.54272461 C33.70439443 14.96351202 33.67633308 16.38442813 33.65356445 17.80541992 C33.61984153 19.8539082 33.56752255 21.9012272 33.51171875 23.94921875 C33.48553467 25.17987061 33.45935059 26.41052246 33.43237305 27.6784668 C32.97480726 31.19353313 32.03915869 33.13948053 30 36 C23.125 35.125 23.125 35.125 22 34 C21.60447973 26.28735466 22.07309281 18.65427134 23 11 C22.12263184 11.01571045 22.12263184 11.01571045 21.22753906 11.03173828 C18.56840337 11.07340264 15.90933647 11.09935901 13.25 11.125 C12.32960938 11.14175781 11.40921875 11.15851562 10.4609375 11.17578125 C9.12675781 11.18544922 9.12675781 11.18544922 7.765625 11.1953125 C6.54020996 11.21102295 6.54020996 11.21102295 5.29003906 11.22705078 C2.73373349 10.97360044 1.15199565 10.3917993 -1 9 C-2.07366225 6.08577389 -2.31375694 4.684336 -1.0078125 1.8359375 C-0.67523438 1.23007812 -0.34265625 0.62421875 0 0 Z " fill="#18CB96" transform="translate(306,47)"/>
<path d="M0 0 C10.15511252 0.13034567 20.27311797 0.62527243 30.41015625 1.23046875 C30.29968427 5.58513042 30.16919406 9.93897374 30.03515625 14.29296875 C30.00421875 15.52208984 29.97328125 16.75121094 29.94140625 18.01757812 C29.74549484 24.07450579 29.49892494 29.5160731 27.41015625 35.23046875 C24.59765625 35.85546875 24.59765625 35.85546875 21.41015625 36.23046875 C20.42015625 35.57046875 19.43015625 34.91046875 18.41015625 34.23046875 C18.08203125 31.03515625 18.08203125 31.03515625 18.16015625 27.10546875 C18.175625 25.82414062 18.19109375 24.5428125 18.20703125 23.22265625 C18.41327086 19.16925466 18.85533211 15.2484694 19.41015625 11.23046875 C18.75942139 11.25141602 18.10868652 11.27236328 17.43823242 11.29394531 C14.4915307 11.37706213 11.54507535 11.42911359 8.59765625 11.48046875 C7.57349609 11.51398437 6.54933594 11.5475 5.49414062 11.58203125 C4.51123047 11.59492188 3.52832031 11.6078125 2.515625 11.62109375 C1.60965576 11.64204102 0.70368652 11.66298828 -0.22973633 11.68457031 C-2.58984375 11.23046875 -2.58984375 11.23046875 -4.4206543 9.37011719 C-5.58984375 7.23046875 -5.58984375 7.23046875 -5.40234375 4.60546875 C-4.28094421 1.32753164 -3.50813218 0.31218672 0 0 Z " fill="#18CB96" transform="translate(349.58984375,12.76953125)"/>
<path d="M0 0 C0.98742187 0.04705078 1.97484375 0.09410156 2.9921875 0.14257812 C4.5390625 0.23249023 4.5390625 0.23249023 6.1171875 0.32421875 C7.12523437 0.37255859 8.13328125 0.42089844 9.171875 0.47070312 C15.1451652 0.77633132 21.05518757 1.28965119 26.9921875 2.01171875 C26.85208963 6.01194095 26.70407006 10.01183336 26.5546875 14.01171875 C26.51537109 15.13707031 26.47605469 16.26242188 26.43554688 17.421875 C26.21046203 23.34333783 25.84746666 29.14694737 24.9921875 35.01171875 C22.8046875 36.13671875 22.8046875 36.13671875 19.9921875 37.01171875 C17.31640625 36.06640625 17.31640625 36.06640625 14.9921875 35.01171875 C14.96504316 32.30331705 14.94527904 29.59519154 14.9296875 26.88671875 C14.92130859 26.12617187 14.91292969 25.365625 14.90429688 24.58203125 C14.88572241 20.27275435 15.13101485 16.25655401 15.9921875 12.01171875 C15.16976563 12.02332031 14.34734375 12.03492188 13.5 12.046875 C-2.62172902 12.17718921 -2.62172902 12.17718921 -7.0078125 11.01171875 C-9.0078125 8.01171875 -9.0078125 8.01171875 -8.8203125 4.94921875 C-7.43361201 -0.06423688 -4.64784565 -0.24008683 0 0 Z " fill="#18CB96" transform="translate(332.0078125,28.98828125)"/>
<path d="M0 0 C2.24609375 0.046875 2.24609375 0.046875 5 1 C6.88769869 3.05930766 8.46229898 4.98943782 10.0625 7.25 C10.90721165 8.40129152 11.7522593 9.5523366 12.59765625 10.703125 C12.96383057 11.21520508 13.33000488 11.72728516 13.70727539 12.25488281 C15.4084286 14.55135933 17.21466935 16.76833669 19 19 C19.33 13.06 19.66 7.12 20 1 C21.65 0.67 23.3 0.34 25 0 C27.23139155 4.4627831 26.18499699 10.59910332 26.1875 15.5 C26.19974609 16.76199219 26.21199219 18.02398437 26.22460938 19.32421875 C26.22750977 21.12826172 26.22750977 21.12826172 26.23046875 22.96875 C26.23457764 24.07669922 26.23868652 25.18464844 26.24291992 26.32617188 C26 29 26 29 24 31 C21.73046875 31.0546875 21.73046875 31.0546875 19 30 C16.83237636 27.90852592 15.09092317 25.54946261 13.3125 23.125 C12.82716797 22.48691406 12.34183594 21.84882812 11.84179688 21.19140625 C9.8095491 18.50603609 7.8689007 15.80335106 6 13 C5.93941406 14.13179687 5.87882812 15.26359375 5.81640625 16.4296875 C5.73200083 17.91147145 5.64735283 19.3932416 5.5625 20.875 C5.50352539 21.99455078 5.50352539 21.99455078 5.44335938 23.13671875 C5.11328125 28.7734375 5.11328125 28.7734375 4 31 C2.35 30.67 0.7 30.34 -1 30 C-1.02465746 25.8882744 -1.04283959 21.77657722 -1.05493164 17.66479492 C-1.0599708 16.26504772 -1.06680216 14.8653058 -1.07543945 13.46557617 C-1.0875232 11.45754223 -1.09269807 9.44947043 -1.09765625 7.44140625 C-1.10289307 6.23170166 -1.10812988 5.02199707 -1.11352539 3.77563477 C-1 1 -1 1 0 0 Z " fill="#131313" transform="translate(287,69)"/>
<path d="M0 0 C2.46394833 2.15595479 3.27100386 2.98155398 3.5 6.1875 C1.52 7.1775 1.52 7.1775 -0.5 8.1875 C-1.139375 7.5275 -1.77875 6.8675 -2.4375 6.1875 C-6.44558099 3.56997772 -9.81523374 3.43302454 -14.5 4.1875 C-15.49 4.8475 -16.48 5.5075 -17.5 6.1875 C-17.17 7.1775 -16.84 8.1675 -16.5 9.1875 C-14.85451172 9.42533203 -14.85451172 9.42533203 -13.17578125 9.66796875 C-11.7211821 9.90258152 -10.26676393 10.13831823 -8.8125 10.375 C-8.09126953 10.47619141 -7.37003906 10.57738281 -6.62695312 10.68164062 C-1.50261431 11.5473965 1.1755086 12.94989877 4.5 17.1875 C5.125 20.1875 5.125 20.1875 4.5 23.1875 C1.13146135 27.67888487 -2.00641048 29.28691155 -7.5 30.1875 C-14.00952626 30.27016065 -18.4482257 29.33254558 -23.5 25.1875 C-24.5 24.1875 -24.5 24.1875 -24.5625 21.625 C-24.541875 20.820625 -24.52125 20.01625 -24.5 19.1875 C-23.51 18.8575 -22.52 18.5275 -21.5 18.1875 C-20.2315625 19.3940625 -20.2315625 19.3940625 -18.9375 20.625 C-15.42973284 23.79785471 -12.34484547 23.678072 -7.76953125 23.55859375 C-5.22585722 23.30313433 -5.22585722 23.30313433 -2.5 21.1875 C-2.5 20.1975 -2.5 19.2075 -2.5 18.1875 C-3.59699219 18.00574219 -4.69398437 17.82398437 -5.82421875 17.63671875 C-7.27873967 17.38335059 -8.7331617 17.12941427 -10.1875 16.875 C-10.90873047 16.75705078 -11.62996094 16.63910156 -12.37304688 16.51757812 C-16.64572983 15.75668938 -19.94200677 14.83388502 -23.5 12.1875 C-24.94430855 9.29888291 -24.87688506 7.39102299 -24.5 4.1875 C-18.35767053 -4.00227263 -8.57159556 -4.43886198 0 0 Z " fill="#161616" transform="translate(118.5,70.8125)"/>
<path d="M0 0 C0.639375 0.61875 1.27875 1.2375 1.9375 1.875 C1.2775 3.195 0.6175 4.515 -0.0625 5.875 C-4.9375 4 -4.9375 4 -6.0625 2.875 C-10.27302902 2.35402176 -13.87176067 2.1605564 -17.5625 4.375 C-19.60082381 7.77220635 -20.27273215 10.96318026 -20.0625 14.875 C-18.5305636 19.21313936 -18.5305636 19.21313936 -15.0625 21.875 C-9.18084264 22.34088282 -9.18084264 22.34088282 -4.0625 19.875 C-3.33284634 17.31217258 -3.33284634 17.31217258 -3.0625 14.875 C-6.0325 14.875 -9.0025 14.875 -12.0625 14.875 C-12.3925 13.555 -12.7225 12.235 -13.0625 10.875 C-11.18524106 8.99774106 -8.13399693 9.65797696 -5.625 9.625 C-4.45066406 9.59921875 -3.27632812 9.5734375 -2.06640625 9.546875 C-1.07511719 9.65515625 -0.08382812 9.7634375 0.9375 9.875 C3.42136059 13.60079089 3.3179212 15.46211402 2.9375 19.875 C1.52153187 23.33625543 0.35004755 24.61246974 -2.8125 26.625 C-8.86590525 28.95323279 -13.31049094 29.42638683 -19.26953125 26.890625 C-23.53303756 24.47556696 -25.7507345 20.46617924 -27.0625 15.875 C-27.73149722 9.96552453 -26.44941981 5.66879419 -23.0625 0.875 C-15.74241654 -5.19911181 -7.81820374 -5.42487607 0 0 Z " fill="#161616" transform="translate(247.0625,72.125)"/>
<path d="M0 0 C0.71220703 -0.02449219 1.42441406 -0.04898438 2.15820312 -0.07421875 C5.86616805 -0.0947995 7.97158839 0.23652869 11.1171875 2.25390625 C14.39077337 5.60778762 15.07916067 8.18326738 15.5 12.8125 C15.08317687 17.56428363 13.76148591 20.7448003 10.4375 24.1875 C7.31835167 25.83371717 4.69915374 26.19017612 1.1875 26.375 C-1.75 25.4375 -1.75 25.4375 -3.8125 24.375 C-3.8125 27.015 -3.8125 29.655 -3.8125 32.375 C-5.46864657 32.75718767 -7.13707024 33.08895102 -8.8125 33.375 C-11.24266037 30.94483963 -9.98572555 25.11724869 -9.99804688 21.72070312 C-9.99796631 21.01824463 -9.99788574 20.31578613 -9.99780273 19.59204102 C-9.99998743 17.44983 -10.01813512 15.30813529 -10.03710938 13.16601562 C-10.04004359 11.8098976 -10.0420282 10.45377712 -10.04296875 9.09765625 C-10.04707764 7.85765869 -10.05118652 6.61766113 -10.05541992 5.34008789 C-9.54474521 -0.89322305 -5.0784722 0.00904447 0 0 Z M-3.8125 8.375 C-4.32580758 11.43773524 -4.42558923 14.32612384 -3.8125 17.375 C-2.58815386 19.19321955 -2.58815386 19.19321955 -0.8125 20.375 C2.6875 20.95833333 2.6875 20.95833333 6.1875 20.375 C9.04326764 18.07196158 9.16931881 16.52044949 9.625 12.875 C9.46083686 9.36805422 9.46083686 9.36805422 7.5 6.9375 C3.36364341 4.14266447 -0.59215204 4.43901916 -3.8125 8.375 Z " fill="#171717" transform="translate(48.8125,74.625)"/>
<path d="M0 0 C2.85188313 1.95153544 3.77754867 4.07816096 5.31152344 7.16357422 C5.88515625 8.31212891 6.45878906 9.46068359 7.04980469 10.64404297 C7.34129395 11.24361816 7.6327832 11.84319336 7.93310547 12.4609375 C8.82416568 14.29026318 9.73607655 16.10799103 10.65136719 17.92529297 C15.07714844 26.88724911 15.07714844 26.88724911 15.07714844 31.42138672 C13.59214844 31.91638672 13.59214844 31.91638672 12.07714844 32.42138672 C9.38336792 29.90719157 7.62909598 27.74898595 6.07714844 24.42138672 C0.97867766 23.95963842 -3.84154774 23.68621936 -8.92285156 24.42138672 C-11.63442876 26.71116302 -12.83868008 29.07167068 -13.92285156 32.42138672 C-15.24285156 31.76138672 -16.56285156 31.10138672 -17.92285156 30.42138672 C-17.3065039 26.32617196 -15.95491872 23.16667017 -14.05175781 19.49951172 C-13.47748047 18.39220703 -12.90320313 17.28490234 -12.31152344 16.14404297 C-11.70888672 14.99806641 -11.10625 13.85208984 -10.48535156 12.67138672 C-9.88658203 11.50994141 -9.2878125 10.34849609 -8.67089844 9.15185547 C-3.36310426 -1.01200573 -3.36310426 -1.01200573 0 0 Z M-1.92285156 8.42138672 C-2.59440089 9.71052159 -3.25994015 11.00278876 -3.92285156 12.29638672 C-4.29410156 13.01568359 -4.66535156 13.73498047 -5.04785156 14.47607422 C-6.05958902 16.36987649 -6.05958902 16.36987649 -5.92285156 18.42138672 C-2.95285156 18.42138672 0.01714844 18.42138672 3.07714844 18.42138672 C1.92129559 14.50926939 0.72179882 11.54688262 -1.92285156 8.42138672 Z " fill="#141414" transform="translate(21.9228515625,68.57861328125)"/>
<path d="M0 0 C1.2065625 0.2475 1.2065625 0.2475 2.4375 0.5 C4.97658116 1.26597109 4.97658116 1.26597109 7 0 C10.78566792 -0.52999351 14.44856036 -0.83021253 17.890625 1.01171875 C20.54687096 3.15863599 21.91374058 4.74122173 23 8 C23.4161764 12.27381146 23.47646722 15.90412539 21.75 19.875 C19.09972452 23.09319166 17.17511556 24.66790212 13.125 25.8125 C9.59794591 26.02412325 7.25224359 25.31638431 4 24 C4 26.64 4 29.28 4 32 C1.525 32.495 1.525 32.495 -1 33 C-1.02465392 28.46102295 -1.04283789 23.92208457 -1.05493164 19.38305664 C-1.0599714 17.83780234 -1.0668032 16.29255284 -1.07543945 14.74731445 C-1.08752076 12.53074971 -1.09323173 10.31424782 -1.09765625 8.09765625 C-1.10281754 7.4028566 -1.10797882 6.70805695 -1.11329651 5.99220276 C-1.11349277 4.3277067 -1.06189129 2.66334501 -1 1 C-0.67 0.67 -0.34 0.34 0 0 Z M4 8 C3.49213331 11.06431924 3.38670225 13.95008689 4 17 C5.22307192 18.82217069 5.22307192 18.82217069 7 20 C10.38318857 20.36248449 12.86784865 20.58433618 15.9375 19 C17.6542175 15.76853177 17.5109324 12.52685279 17 9 C16.06756129 6.42048316 16.06756129 6.42048316 14 5 C9.76681867 4.36952618 6.73064511 4.5341812 4 8 Z " fill="#0D0D0D" transform="translate(69,75)"/>
<path d="M0 0 C0.7734375 0.00644531 1.546875 0.01289062 2.34375 0.01953125 C4.5 0.1875 4.5 0.1875 7.5 1.1875 C9.64255793 0.79817144 9.64255793 0.79817144 11.5 0.1875 C13.6097676 3.3521514 13.75552605 4.16143773 13.765625 7.78515625 C13.76949219 9.11063477 13.76949219 9.11063477 13.7734375 10.46289062 C13.76570313 11.38263672 13.75796875 12.30238281 13.75 13.25 C13.75773437 14.17361328 13.76546875 15.09722656 13.7734375 16.04882812 C13.77085937 16.93119141 13.76828125 17.81355469 13.765625 18.72265625 C13.76336914 19.530979 13.76111328 20.33930176 13.75878906 21.17211914 C13.5 23.1875 13.5 23.1875 11.5 25.1875 C10.736875 25.0225 9.97375 24.8575 9.1875 24.6875 C6.50426527 23.91710124 6.50426527 23.91710124 4.25 25.25 C0.03934418 26.68545085 -3.44291306 25.88299902 -7.5 24.1875 C-10.98215826 20.79027243 -11.7654893 17.90613954 -12 13.1875 C-11.81019025 8.51958618 -10.62599384 5.76006438 -7.5 2.1875 C-4.35388747 0.09009164 -3.58811922 -0.06578219 0 0 Z M-3.8125 6.6875 C-6.33210805 10.42025267 -5.99582992 12.7250307 -5.5 17.1875 C-4.60242444 19.33530077 -4.60242444 19.33530077 -2.5 20.1875 C2.1175475 20.78125204 2.1175475 20.78125204 6.19140625 18.9453125 C8.27455092 16.14705847 7.97249747 13.66583847 7.8515625 10.28515625 C7.65105964 8.02382006 7.65105964 8.02382006 5.8125 6.125 C1.9531443 4.56039634 -0.25618872 4.38070349 -3.8125 6.6875 Z " fill="#171717" transform="translate(152.5,74.8125)"/>
<path d="M0 0 C0.99 0.33 1.98 0.66 3 1 C3.33 5.62 3.66 10.24 4 15 C5.5778125 13.2984375 5.5778125 13.2984375 7.1875 11.5625 C9.99452585 8.7326528 11.85114741 7.12572281 16 7 C16.71484375 8.765625 16.71484375 8.765625 17 11 C15.56640625 12.921875 15.56640625 12.921875 13.5625 14.75 C12.57443359 15.67039062 12.57443359 15.67039062 11.56640625 16.609375 C11.04949219 17.06828125 10.53257812 17.5271875 10 18 C11.95388566 21.51699419 13.79148569 24.52486039 17 27 C20.167832 27.33448259 20.167832 27.33448259 23 27 C23.33 28.65 23.66 30.3 24 32 C20.04310689 33.42448152 17.00924549 33.20277365 13 32 C10.6514685 29.78101384 8.63164384 27.44572143 6.6015625 24.93359375 C5.80878906 23.97646484 5.80878906 23.97646484 5 23 C4.67 23 4.34 23 4 23 C3.67 25.64 3.34 28.28 3 31 C1.125 31.625 1.125 31.625 -1 32 C-4.25458869 28.74541131 -3.29603956 24.80525164 -3.32226562 20.37304688 C-3.31904297 19.11556641 -3.31582031 17.85808594 -3.3125 16.5625 C-3.32861328 15.30888672 -3.34472656 14.05527344 -3.36132812 12.76367188 C-3.36197266 11.56419922 -3.36261719 10.36472656 -3.36328125 9.12890625 C-3.36626221 8.02619385 -3.36924316 6.92348145 -3.37231445 5.78735352 C-3 3 -3 3 -1.47729492 1.11694336 C-0.9897876 0.74835205 -0.50228027 0.37976074 0 0 Z " fill="#181818" transform="translate(197,68)"/>
<path d="M0 0 C2.61738497 0.35541735 3.70814078 0.6233939 5.35620117 2.75 C5.74783447 3.4925 6.13946777 4.235 6.54296875 5 C6.97673828 5.804375 7.41050781 6.60875 7.85742188 7.4375 C8.29634766 8.283125 8.73527344 9.12875 9.1875 10 C10.07575942 11.66723371 10.96502897 13.33392977 11.85546875 15 C12.24371826 15.7425 12.63196777 16.485 13.03198242 17.25 C13.87839903 18.97056163 13.87839903 18.97056163 15 20 C18.63 13.4 22.26 6.8 26 0 C27.32 0 28.64 0 30 0 C31.13516565 2.78703311 31.05423387 3.85939367 29.9519043 6.71728516 C29.41476807 7.73097168 28.87763184 8.7446582 28.32421875 9.7890625 C27.74349609 10.89507812 27.16277344 12.00109375 26.56445312 13.140625 C25.94505859 14.29046875 25.32566406 15.4403125 24.6875 16.625 C24.07970703 17.78257813 23.47191406 18.94015625 22.84570312 20.1328125 C18.31466421 28.68533579 18.31466421 28.68533579 16 31 C14.02954102 30.87768555 14.02954102 30.87768555 12 30 C10.67553711 28.23754883 10.67553711 28.23754883 9.52734375 25.95703125 C9.10259766 25.13009766 8.67785156 24.30316406 8.24023438 23.45117188 C7.81033203 22.58041016 7.38042969 21.70964844 6.9375 20.8125 C6.50373047 19.96107422 6.06996094 19.10964844 5.62304688 18.23242188 C4.78109751 16.57543477 3.94706814 14.91439448 3.12182617 13.24902344 C2.16919538 11.33920084 1.17488233 9.45025977 0.171875 7.56640625 C-1.20658121 4.54758714 -1.00634164 3.11051054 0 0 Z " fill="#141414" transform="translate(253,69)"/>
<path d="M0 0 C2.28473292 1.45392095 3.34671154 2.79561538 5 5 C4.67 5.99 4.34 6.98 4 8 C1.83125748 7.49396008 0.00032373 7.00016187 -2 6 C-5.5 5.66666667 -5.5 5.66666667 -9 6 C-11.45811625 9.68717438 -11.31118164 11.64345704 -11 16 C-10.34 16.99 -9.68 17.98 -9 19 C-4.05115699 19.40564287 -0.51105678 19.25552839 4 17 C4.33 18.32 4.66 19.64 5 21 C1.12210153 24.64287432 -1.65416885 25.9078305 -7 26 C-10.96550037 24.67816654 -14.43815291 23.41579611 -17 20 C-18.35609289 15.93172134 -18.5298986 12.25370654 -18 8 C-14.02250115 0.18705583 -8.37962333 -1.39434766 0 0 Z " fill="#161616" transform="translate(187,75)"/>
<path d="M0 0 C2.125 0.9375 2.125 0.9375 4 2 C4 3.65 4 5.3 4 7 C5.65 7 7.3 7 9 7 C9.5625 8.9375 9.5625 8.9375 10 11 C9.67 11.33 9.34 11.66 9 12 C7.35 12 5.7 12 4 12 C4 16.95 4 21.9 4 27 C6.31 27 8.62 27 11 27 C10.67 28.65 10.34 30.3 10 32 C6.39906035 32.92117061 4.61372229 33.28640374 1.1875 31.6875 C-1 30 -1 30 -2 28 C-2.07181821 25.28239892 -2.09299506 22.59140612 -2.0625 19.875 C-2.05798828 19.12089844 -2.05347656 18.36679688 -2.04882812 17.58984375 C-2.03703499 15.72652873 -2.01909942 13.86325445 -2 12 C-3.32 12 -4.64 12 -6 12 C-6.33 11.01 -6.66 10.02 -7 9 C-6.34 8.34 -5.68 7.68 -5 7 C-4.01 7 -3.02 7 -2 7 C-2 5.02 -2 3.04 -2 1 C-1.34 0.67 -0.68 0.34 0 0 Z " fill="#191919" transform="translate(129,68)"/>
<path d="M0 0 C0 1.32 0 2.64 0 4 C-1.8125 4.625 -1.8125 4.625 -4 5 C-4.99 4.34 -5.98 3.68 -7 3 C-7 2.01 -7 1.02 -7 0 C-4.3333581 -1.33332095 -2.83319697 -0.67102033 0 0 Z " fill="#252525" transform="translate(221,96)"/>
</svg>
